<?xml version="1.0" encoding="UTF-8" standalone="no"?>
<svg
   xmlns:dc="http://purl.org/dc/elements/1.1/"
   xmlns:cc="http://creativecommons.org/ns#"
   xmlns:rdf="http://www.w3.org/1999/02/22-rdf-syntax-ns#"
   xmlns:svg="http://www.w3.org/2000/svg"
   xmlns="http://www.w3.org/2000/svg"
   id="svg8"
   version="1.1"
   viewBox="0 0 210 297"
   height="297mm"
   width="210mm">
  <defs
     id="defs2">
    <clipPath
       id="clipPath854"
       clipPathUnits="userSpaceOnUse">
      <path
         clip-path="none"
         id="path856"
         d="m 93.544334,150.13539 c 3e-6,12.47295 -9.572849,22.58428 -21.381561,22.58428 -11.808711,0 -21.381564,-10.11133 -21.381561,-22.58428 3e-6,-12.47295 9.572852,-22.58427 21.381561,-22.58427 3.798922,0 7.366445,1.04646 10.458289,2.88137 6.518955,3.86877 10.92327,11.24256 10.923272,19.7029 z"
         style="opacity:1;fill:#808080;fill-opacity:1;fill-rule:evenodd;stroke:none;stroke-width:1.60000002;stroke-linecap:round;stroke-linejoin:bevel;stroke-miterlimit:4;stroke-dasharray:none;stroke-dashoffset:0;stroke-opacity:1;paint-order:stroke fill markers" />
    </clipPath>
  </defs>
  <metadata
     id="metadata5">
    <rdf:RDF>
      <cc:Work
         rdf:about="">
        <dc:format>image/svg+xml</dc:format>
        <dc:type
           rdf:resource="http://purl.org/dc/dcmitype/StillImage" />
        <dc:title></dc:title>
      </cc:Work>
    </rdf:RDF>
  </metadata>
  <g
     id="layer1">
    <g
       transform="matrix(0.72210201,0,0,0.72210201,36.765658,69.958519)"
       id="g1609">
      <path
         style="opacity:1;fill:#ffffff;fill-opacity:1;fill-rule:evenodd;stroke:#000000;stroke-width:1.06500006;stroke-linecap:round;stroke-linejoin:bevel;stroke-miterlimit:4;stroke-dasharray:none;stroke-dashoffset:0;stroke-opacity:1;paint-order:stroke fill markers"
         d="M 40.065477,46.023803 H 148.92262 V 171.51189 H 40.065477 Z"
         id="rect1571" />
      <path
         style="fill:none;stroke:#00fdfd;stroke-width:0.26458332px;stroke-linecap:butt;stroke-linejoin:miter;stroke-opacity:1"
         d="M 39.6875,154.88095 H 149.30059"
         id="path1574" />
      <path
         id="path1576"
         d="M 39.6875,138.62797 H 149.30059"
         style="fill:none;stroke:#00fdfd;stroke-width:0.26458332px;stroke-linecap:butt;stroke-linejoin:miter;stroke-opacity:1" />
      <path
         style="fill:none;stroke:#00fdfd;stroke-width:0.26458332px;stroke-linecap:butt;stroke-linejoin:miter;stroke-opacity:1"
         d="M 39.6875,123.88689 H 149.30059"
         id="path1578" />
      <path
         id="path1580"
         d="M 39.6875,108.38987 H 149.30059"
         style="fill:none;stroke:#00fdfd;stroke-width:0.26458332px;stroke-linecap:butt;stroke-linejoin:miter;stroke-opacity:1" />
      <path
         style="fill:none;stroke:#00fdfd;stroke-width:0.26458332px;stroke-linecap:butt;stroke-linejoin:miter;stroke-opacity:1"
         d="M 39.6875,93.270824 H 149.30059"
         id="path1582" />
      <path
         id="path1584"
         d="M 39.6875,78.529753 H 149.30059"
         style="fill:none;stroke:#00fdfd;stroke-width:0.26458332px;stroke-linecap:butt;stroke-linejoin:miter;stroke-opacity:1" />
      <path
         style="fill:none;stroke:#00fdfd;stroke-width:0.26458332px;stroke-linecap:butt;stroke-linejoin:miter;stroke-opacity:1"
         d="M 39.6875,62.276777 H 149.30059"
         id="path1586" />
      <path
         style="fill:none;stroke:#ff0082;stroke-width:0.26458332px;stroke-linecap:butt;stroke-linejoin:miter;stroke-opacity:1"
         d="M 53.672618,46.02381 V 171.88988"
         id="path1588" />
      <path
         style="opacity:1;fill:#e7e7e7;fill-opacity:1;fill-rule:evenodd;stroke:none;stroke-width:1.06500006;stroke-linecap:round;stroke-linejoin:bevel;stroke-miterlimit:4;stroke-dasharray:none;stroke-dashoffset:0;stroke-opacity:1;paint-order:stroke fill markers"
         d="m 50.648811,70.592266 a 3.7797618,3.7797618 0 0 1 -3.779762,3.779761 3.7797618,3.7797618 0 0 1 -3.779762,-3.779761 3.7797618,3.7797618 0 0 1 3.779762,-3.779762 3.7797618,3.7797618 0 0 1 3.779762,3.779762 z"
         id="path1590" />
      <path
         id="path1593"
         d="m 50.648811,108.38989 a 3.7797618,3.7797618 0 0 1 -3.779762,3.77976 3.7797618,3.7797618 0 0 1 -3.779762,-3.77976 3.7797618,3.7797618 0 0 1 3.779762,-3.77977 3.7797618,3.7797618 0 0 1 3.779762,3.77977 z"
         style="opacity:1;fill:#e7e7e7;fill-opacity:1;fill-rule:evenodd;stroke:none;stroke-width:1.06500006;stroke-linecap:round;stroke-linejoin:bevel;stroke-miterlimit:4;stroke-dasharray:none;stroke-dashoffset:0;stroke-opacity:1;paint-order:stroke fill markers" />
      <path
         style="opacity:1;fill:#e7e7e7;fill-opacity:1;fill-rule:evenodd;stroke:none;stroke-width:1.06500006;stroke-linecap:round;stroke-linejoin:bevel;stroke-miterlimit:4;stroke-dasharray:none;stroke-dashoffset:0;stroke-opacity:1;paint-order:stroke fill markers"
         d="m 50.648811,145.80953 a 3.7797618,3.7797618 0 0 1 -3.779762,3.77976 3.7797618,3.7797618 0 0 1 -3.779762,-3.77976 3.7797618,3.7797618 0 0 1 3.779762,-3.77977 3.7797618,3.7797618 0 0 1 3.779762,3.77977 z"
         id="path1595" />
    </g>
  </g>
</svg>
