<?xml version="1.0" encoding="UTF-8" standalone="no"?>
<svg
   xmlns:dc="http://purl.org/dc/elements/1.1/"
   xmlns:cc="http://creativecommons.org/ns#"
   xmlns:rdf="http://www.w3.org/1999/02/22-rdf-syntax-ns#"
   xmlns:svg="http://www.w3.org/2000/svg"
   xmlns="http://www.w3.org/2000/svg"
   id="svg8"
   version="1.1"
   viewBox="0 0 210 297"
   height="297mm"
   width="210mm">
  <defs
     id="defs2">
    <clipPath
       id="clipPath854"
       clipPathUnits="userSpaceOnUse">
      <path
         clip-path="none"
         id="path856"
         d="m 93.544334,150.13539 c 3e-6,12.47295 -9.572849,22.58428 -21.381561,22.58428 -11.808711,0 -21.381564,-10.11133 -21.381561,-22.58428 3e-6,-12.47295 9.572852,-22.58427 21.381561,-22.58427 3.798922,0 7.366445,1.04646 10.458289,2.88137 6.518955,3.86877 10.92327,11.24256 10.923272,19.7029 z"
         style="opacity:1;fill:#808080;fill-opacity:1;fill-rule:evenodd;stroke:none;stroke-width:1.60000002;stroke-linecap:round;stroke-linejoin:bevel;stroke-miterlimit:4;stroke-dasharray:none;stroke-dashoffset:0;stroke-opacity:1;paint-order:stroke fill markers" />
    </clipPath>
  </defs>
  <metadata
     id="metadata5">
    <rdf:RDF>
      <cc:Work
         rdf:about="">
        <dc:format>image/svg+xml</dc:format>
        <dc:type
           rdf:resource="http://purl.org/dc/dcmitype/StillImage" />
        <dc:title></dc:title>
      </cc:Work>
    </rdf:RDF>
  </metadata>
  <g
     id="layer1">
    <g
       transform="matrix(0.65018417,-0.45185461,0.45185461,0.65018417,0.33091873,108.498)"
       id="g883">
      <path
         style="opacity:1;fill:#bababa;fill-opacity:1;fill-rule:evenodd;stroke:#000000;stroke-width:1;stroke-linecap:round;stroke-linejoin:bevel;stroke-miterlimit:4;stroke-dasharray:none;stroke-dashoffset:0;stroke-opacity:1;paint-order:stroke fill markers"
         d="m 73.23185,51.913845 c 0,0 2.670474,3.378238 3.474503,5.345391 8.838152,21.623591 13.898015,68.688274 13.898015,68.688274 H 73.23185 Z"
         id="rect846" />
      <path
         id="path852"
         d="m 63.655508,53.068842 c 0,0 -1.593731,4.000493 -1.802088,6.115378 -2.290326,23.247516 6.310263,69.79552 6.310263,69.79552 l 16.648079,-4.96446 z"
         style="opacity:1;fill:#cccccc;fill-opacity:1;fill-rule:evenodd;stroke:#000000;stroke-width:1;stroke-linecap:round;stroke-linejoin:bevel;stroke-miterlimit:4;stroke-dasharray:none;stroke-dashoffset:0;stroke-opacity:1;paint-order:stroke fill markers" />
      <path
         style="opacity:1;fill:#ff8080;fill-opacity:1;fill-rule:evenodd;stroke:#000000;stroke-width:3.92705011;stroke-linecap:round;stroke-linejoin:bevel;stroke-miterlimit:4;stroke-dasharray:none;stroke-dashoffset:0;stroke-opacity:1;paint-order:stroke fill markers"
         d="m 345.97852,454.15039 -96.29102,15.99414 7.39453,44.52344 -32.60351,41.79101 c -21.47514,27.52729 -1.9831,63.36407 21.29492,74.70435 18.61822,9.07018 45.59718,-6.5031 57.54827,-23.41693 18.28389,-25.87634 2.73225,-92.26149 4.36314,-94.95226 3.28808,1.99294 18.80615,70.32286 30.85731,89.33663 16.06393,25.34494 64.51624,25.20192 80.61995,-1.3671 18.09662,-29.85707 0.48095,-64.69286 -29.37614,-82.78947 l -36.41292,-19.30232 z"
         transform="scale(0.26458333)"
         id="rect854" />
      <path
         style="opacity:1;fill:#ffffff;fill-opacity:1;fill-rule:evenodd;stroke:#000000;stroke-width:0.99999994;stroke-linecap:round;stroke-linejoin:bevel;stroke-miterlimit:4;stroke-dasharray:none;stroke-dashoffset:0;stroke-opacity:1;paint-order:stroke fill markers"
         d="m 78.844512,154.07762 a 9.1539806,9.1539806 0 0 1 -9.15398,9.15398 9.1539806,9.1539806 0 0 1 -9.153981,-9.15398 9.1539806,9.1539806 0 0 1 9.153981,-9.15398 9.1539806,9.1539806 0 0 1 9.15398,9.15398 z"
         id="path866" />
      <path
         style="opacity:1;fill:#e17070;fill-opacity:1;fill-rule:evenodd;stroke:#000000;stroke-width:1;stroke-linecap:round;stroke-linejoin:bevel;stroke-miterlimit:4;stroke-dasharray:none;stroke-dashoffset:0;stroke-opacity:1;paint-order:stroke fill markers"
         d="m 83.655365,131.62698 a 3.0067821,3.0067821 0 0 1 -3.006783,3.00679 3.0067821,3.0067821 0 0 1 -3.006782,-3.00679 3.0067821,3.0067821 0 0 1 3.006782,-3.00678 3.0067821,3.0067821 0 0 1 3.006783,3.00678 z"
         id="path870" />
      <path
         id="path875"
         d="m 108.11053,150.20221 a 9.1539806,9.1539806 0 0 1 -9.153985,9.15398 9.1539806,9.1539806 0 0 1 -9.153981,-9.15398 9.1539806,9.1539806 0 0 1 9.153981,-9.15398 9.1539806,9.1539806 0 0 1 9.153985,9.15398 z"
         style="opacity:1;fill:#ffffff;fill-opacity:1;fill-rule:evenodd;stroke:#000000;stroke-width:0.99999994;stroke-linecap:round;stroke-linejoin:bevel;stroke-miterlimit:4;stroke-dasharray:none;stroke-dashoffset:0;stroke-opacity:1;paint-order:stroke fill markers" />
    </g>
  </g>
</svg>
